<svg id="Layer_1" data-name="Layer 1" xmlns="http://www.w3.org/2000/svg" viewBox="0 0 175.92 175.91"><defs><style>.cls-1{fill:#fff;}</style></defs><path class="cls-1" d="M139.79,0H36.13A36.14,36.14,0,0,0,0,36.13V139.78a36.14,36.14,0,0,0,36.13,36.13h59.3v-70h-24V78.86h24V59.73c.1-18.33,6.74-24.59,6.74-24.59,9.71-12.67,25-12.29,25-12.29h24.32V48.36H135.26c-11.14-.2-12.09,9.23-12.15,11.37V78.86h27.21L147,105.94H123.15v70h16.64a36.14,36.14,0,0,0,36.13-36.13V36.13A36.14,36.14,0,0,0,139.79,0Z"/></svg>