<svg id="Layer_1" data-name="Layer 1" xmlns="http://www.w3.org/2000/svg" viewBox="0 0 175.92 175.89"><defs><style>.cls-1{fill:#fff;}</style></defs><path class="cls-1" d="M89.74,67.22a21,21,0,1,0,0,42v0a21,21,0,1,0,0-42Z"/><path class="cls-1" d="M108.54,34.36H67.39a33,33,0,0,0-33,33v41.15a33,33,0,0,0,33,33h41.17a33,33,0,0,0,33-33l0-41.15A33,33,0,0,0,108.54,34.36Zm16.15,53.81A35,35,0,1,1,89.74,53.22h0a34.94,34.94,0,0,1,34.94,34.94Zm-2.42-26.61a8.89,8.89,0,1,1,8.89-8.89A8.89,8.89,0,0,1,122.27,61.56Z"/><path class="cls-1" d="M139.79,0H36.13A36.14,36.14,0,0,0,0,36.11V139.76a36.15,36.15,0,0,0,36.13,36.13H139.79a36.15,36.15,0,0,0,36.13-36.13V36.11A36.14,36.14,0,0,0,139.79,0ZM154.3,113.4h0a40.87,40.87,0,0,1-40.88,40.86H62.5A40.89,40.89,0,0,1,21.62,113.4V62.48A40.88,40.88,0,0,1,62.5,21.6h50.92A40.88,40.88,0,0,1,154.3,62.48Z"/></svg>