<svg id="Layer_1" data-name="Layer 1" xmlns="http://www.w3.org/2000/svg" viewBox="0 0 175.92 175.94"><defs><style>.cls-1{fill:#fff;}</style></defs><path class="cls-1" d="M139.79,0H36.13A36.14,36.14,0,0,0,0,36.16V139.81a36.14,36.14,0,0,0,36.13,36.13H139.79a36.14,36.14,0,0,0,36.13-36.13V36.16A36.14,36.14,0,0,0,139.79,0Zm-.52,62.87c.06,1.09.08,2.19.08,3.29,0,33.7-25.59,72.58-72.39,72.58A71.77,71.77,0,0,1,28,127.3a51.21,51.21,0,0,0,37.67-10.56A25.5,25.5,0,0,1,41.86,99a24.88,24.88,0,0,0,11.48-.44,25.48,25.48,0,0,1-20.4-25v-.33a25.18,25.18,0,0,0,11.53,3.2A25.55,25.55,0,0,1,36.59,42.4,72.19,72.19,0,0,0,89,69.05a26,26,0,0,1-.65-5.82,25.43,25.43,0,0,1,44-17.44,51.28,51.28,0,0,0,16.15-6.19,25.6,25.6,0,0,1-11.19,14.1,50.52,50.52,0,0,0,14.61-4A51.75,51.75,0,0,1,139.27,62.9Z"/></svg>